# xmcd
#
# Track frame offsets:
#	150
#	31782
#	64866
#	83239
#	109758
#	141381
#	160837
#	169318
#	211303
#	255829
#	278306
#
# Disc length: 4105 seconds
#
# Revision: 1
# Processed by: cddbd v1.5.2PL0 Copyright (c) Steve Scherf et al.
# Submitted via: audiograbber 1.83.01
#
DISCID=8d10070b
DTITLE=Grateful Dead - 70-12-23 Winterland Arena, San Francisco CA
DYEAR=1900
DGENRE=
TTITLE0=Hard To Handle
TTITLE1=Candyman
TTITLE2=Me and My Uncle
TTITLE3=Cold Rain and Snow
TTITLE4=Me and Bobby McGee
TTITLE5=Dire Wolf
TTITLE6=Good Lovin'
TTITLE7=Drums
TTITLE8=Good Lovin'
TTITLE9=Casey Jones
TTITLE10=Uncle John's Band
EXTD=
EXTT0=
EXTT1=
EXTT2=
EXTT3=
EXTT4=
EXTT5=
EXTT6=
EXTT7=
EXTT8=
EXTT9=
EXTT10=
PLAYORDER=
